<svg width="48" height="49" viewBox="0 0 48 49" fill="none" xmlns="http://www.w3.org/2000/svg">
<path d="M21.3333 11.2028H37.3333V16.5361H21.3333V11.2028ZM21.3333 21.8695H37.3333V27.2028H21.3333V21.8695ZM21.3333 32.5361H37.3333V37.8695H21.3333V32.5361ZM10.6667 11.2028H16V16.5361H10.6667V11.2028ZM10.6667 21.8695H16V27.2028H10.6667V21.8695ZM10.6667 32.5361H16V37.8695H10.6667V32.5361ZM45.6 0.536133H2.4C1.06667 0.536133 0 1.6028 0 2.93613V46.1361C0 47.2028 1.06667 48.5361 2.4 48.5361H45.6C46.6667 48.5361 48 47.2028 48 46.1361V2.93613C48 1.6028 46.6667 0.536133 45.6 0.536133ZM42.6667 43.2028H5.33333V5.86947H42.6667V43.2028Z" fill="#005EA2"/>
</svg>
