<svg width="49" height="49" viewBox="0 0 49 49" fill="none" xmlns="http://www.w3.org/2000/svg">
<path d="M43.3337 0.536133H6.00033C3.06699 0.536133 0.666992 2.93613 0.666992 5.86947V43.2028C0.666992 46.1361 3.06699 48.5361 6.00033 48.5361H43.3337C46.267 48.5361 48.667 46.1361 48.667 43.2028V5.86947C48.667 2.93613 46.267 0.536133 43.3337 0.536133ZM43.3337 43.2028H6.00033V5.86947H43.3337V43.2028Z" fill="#005EA2"/>
<path d="M22.667 13.1228H9.33366V17.1228H22.667V13.1228Z" fill="#005EA2"/>
<path d="M40.667 34.5361H27.3337V38.5361H40.667V34.5361Z" fill="#005EA2"/>
<path d="M40.667 27.8695H27.3337V31.8695H40.667V27.8695Z" fill="#005EA2"/>
<path d="M14.0003 40.5361H18.0003V35.2028H23.3337V31.2028H18.0003V25.8695H14.0003V31.2028H8.66699V35.2028H14.0003V40.5361Z" fill="#005EA2"/>
<path d="M30.2403 21.7361L34.0003 17.9761L37.7603 21.7361L40.587 18.9095L36.827 15.1228L40.587 11.3628L37.7603 8.53613L34.0003 12.2961L30.2403 8.53613L27.4137 11.3628L31.1737 15.1228L27.4137 18.9095L30.2403 21.7361Z" fill="#005EA2"/>
</svg>
