<svg width="16" height="17" viewBox="0 0 16 17" fill="none" xmlns="http://www.w3.org/2000/svg">
<path fill-rule="evenodd" clip-rule="evenodd" d="M8.00016 2.26758C11.1602 2.26758 14.0002 4.75425 14.0002 8.41425C14.3935 8.62091 14.6668 9.02758 14.6668 9.49425V11.0276C14.6668 11.5076 14.3935 11.9142 14.0002 12.1209V12.9342C14.0002 13.6676 13.4002 14.2676 12.6668 14.2676H7.3335V12.9342H12.6668V8.20091C12.6668 5.62091 10.5802 3.53424 8.00016 3.53424C5.42016 3.53424 3.3335 5.62091 3.3335 8.20091V12.2676H2.66683C1.9335 12.2676 1.3335 11.6676 1.3335 10.9342V9.60091C1.3335 9.10758 1.60016 8.68091 2.00016 8.45424C2.00016 4.70091 4.8735 2.26758 8.00016 2.26758ZM6.00016 8.26758C6.36835 8.26758 6.66683 8.56606 6.66683 8.93425C6.66683 9.30243 6.36835 9.60091 6.00016 9.60091C5.63197 9.60091 5.3335 9.30243 5.3335 8.93425C5.3335 8.56606 5.63197 8.26758 6.00016 8.26758ZM10.0002 8.26758C10.3684 8.26758 10.6668 8.56606 10.6668 8.93425C10.6668 9.30243 10.3684 9.60091 10.0002 9.60091C9.63197 9.60091 9.3335 9.30243 9.3335 8.93425C9.3335 8.56606 9.63197 8.26758 10.0002 8.26758ZM8.0335 4.26758C10.0268 4.26758 11.6802 5.72091 12.0002 7.62091C9.92016 7.60091 8.12683 6.39425 7.2535 4.64091C6.90016 6.42758 5.66016 7.89424 4.0135 8.56758C3.84016 5.94091 6.0135 4.26758 8.0335 4.26758Z" fill="white"/>
</svg>
