<svg xmlns="http://www.w3.org/2000/svg" fill="none" viewBox="0.33 0.66 53.33 53.33">
<path d="M5.66683 11.3219H0.333496V48.6553C0.333496 51.5886 2.7335 53.9886 5.66683 53.9886H43.0002V48.6553H5.66683V11.3219ZM48.3335 0.655273H16.3335C13.4002 0.655273 11.0002 3.05527 11.0002 5.98861V37.9886C11.0002 40.9219 13.4002 43.3219 16.3335 43.3219H48.3335C51.2668 43.3219 53.6668 40.9219 53.6668 37.9886V5.98861C53.6668 3.05527 51.2668 0.655273 48.3335 0.655273ZM40.3335 5.98861V19.3219L37.6668 17.3219L35.0002 19.3219V5.98861H40.3335ZM48.3335 37.9886H16.3335V5.98861H29.6668V29.9886L37.6668 23.9886L45.6668 29.9886V5.98861H48.3335V37.9886Z" fill="#005EA2"/>
</svg>