<svg width="54" height="55" viewBox="0 0 54 55" fill="none" xmlns="http://www.w3.org/2000/svg">
<path d="M24.6665 43.5358H29.9998V38.2025H24.6665V43.5358ZM27.3332 0.869141C12.6132 0.869141 0.666504 12.8158 0.666504 27.5358C0.666504 42.2558 12.6132 54.2025 27.3332 54.2025C42.0532 54.2025 53.9998 42.2558 53.9998 27.5358C53.9998 12.8158 42.0532 0.869141 27.3332 0.869141ZM27.3332 48.8691C15.5732 48.8691 5.99984 39.2958 5.99984 27.5358C5.99984 15.7758 15.5732 6.20247 27.3332 6.20247C39.0932 6.20247 48.6665 15.7758 48.6665 27.5358C48.6665 39.2958 39.0932 48.8691 27.3332 48.8691ZM27.3332 11.5358C21.4398 11.5358 16.6665 16.3091 16.6665 22.2025H21.9998C21.9998 19.2691 24.3998 16.8691 27.3332 16.8691C30.2665 16.8691 32.6665 19.2691 32.6665 22.2025C32.6665 27.5358 24.6665 26.8691 24.6665 35.5358H29.9998C29.9998 29.5358 37.9998 28.8691 37.9998 22.2025C37.9998 16.3091 33.2265 11.5358 27.3332 11.5358Z" fill="#005EA2"/>
</svg>
