<svg width="16" height="17" viewBox="0 0 16 17" fill="none" xmlns="http://www.w3.org/2000/svg">
<path fill-rule="evenodd" clip-rule="evenodd" d="M13.9998 5.60091C14.7332 5.60091 15.3332 6.20091 15.3332 6.93424C15.3332 7.90091 14.3732 8.44091 13.6598 8.22091L11.2865 10.5876C11.5132 11.3076 10.9665 12.2676 9.99984 12.2676C9.0265 12.2676 8.4865 11.3009 8.71317 10.5876L7.01317 8.88758C6.81317 8.94758 6.51984 8.94758 6.31984 8.88758L3.2865 11.9276C3.5065 12.6409 2.9665 13.6009 1.99984 13.6009C1.2665 13.6009 0.666504 13.0009 0.666504 12.2676C0.666504 11.3009 1.6265 10.7609 2.33984 10.9809L5.37984 7.94758C5.15317 7.22758 5.69984 6.26758 6.6665 6.26758C7.63984 6.26758 8.17984 7.23424 7.95317 7.94758L9.65317 9.64758C9.85317 9.58758 10.1465 9.58758 10.3465 9.64758L12.7132 7.27424C12.4932 6.56091 13.0332 5.60091 13.9998 5.60091ZM2.33317 4.26758L2.6665 5.60091L3.99984 5.93424L2.6665 6.26758L2.33317 7.60091L1.99984 6.26758L0.666504 5.93424L1.99984 5.60091L2.33317 4.26758ZM9.99984 2.26758L10.6265 3.64758L11.9998 4.26758L10.6265 4.88758L9.99984 6.26758L9.3865 4.88758L7.99984 4.26758L9.3865 3.64758L9.99984 2.26758Z" fill="white"/>
</svg>
