<svg width="32" height="32" viewBox="0 0 32 32" fill="none" xmlns="http://www.w3.org/2000/svg">
<path d="M18.4417 20.9469H17.9575V15.5154C17.9575 14.6943 17.3048 14.0417 16.4838 14.0417H13.5153C12.6943 14.0417 12.0417 14.6943 12.0417 15.5154C12.0417 16.3364 12.6943 16.989 13.5153 16.989H14.989V20.9259H13.5153C12.6943 20.9259 12.0417 21.5785 12.0417 22.3996C12.0417 23.2206 12.6943 23.8733 13.5153 23.8733H18.4417C19.2627 23.8733 19.9153 23.2206 19.9153 22.3996C19.9153 21.5785 19.2627 20.9259 18.4417 20.9259V20.9469Z" fill="#595959"/>
<path d="M15.9785 12.0627C16.5048 12.0627 17.0101 11.8522 17.368 11.4943C17.7259 11.1364 17.9364 10.6312 17.9364 10.1048C17.9364 9.57853 17.7259 9.07326 17.368 8.71536C17.0101 8.35747 16.5048 8.14697 15.9785 8.14697C15.4522 8.14697 14.9469 8.35747 14.589 8.71536C14.2311 9.07326 14.0206 9.57853 14.0206 10.1048C14.0206 10.6312 14.2311 11.1364 14.589 11.4943C14.9469 11.8522 15.4522 12.0627 15.9785 12.0627Z" fill="#595959"/>
<path d="M27.1575 4.84169C24.189 1.87327 20.189 0.210083 15.9996 0.210083C11.8101 0.210083 7.78903 1.87327 4.84166 4.84169C1.87324 7.81011 0.210083 11.8101 0.210083 15.9996C0.210083 20.189 1.87324 24.2101 4.84166 27.1575C7.81008 30.1259 11.8101 31.789 15.9996 31.789C20.189 31.789 24.2101 30.1259 27.1575 27.1575C30.1048 24.1891 31.789 20.189 31.789 15.9996C31.789 11.8101 30.1259 7.78906 27.1575 4.84169ZM25.0522 25.0733C22.6522 27.4733 19.389 28.8207 15.9785 28.8207C12.568 28.8207 9.30482 27.4733 6.90482 25.0733C4.50482 22.6733 3.15745 19.4101 3.15745 15.9996C3.15745 12.589 4.50482 9.32588 6.90482 6.92588C9.30482 4.52588 12.568 3.17851 15.9785 3.17851C19.389 3.17851 22.6522 4.52588 25.0522 6.92588C27.4522 9.32588 28.7996 12.589 28.7996 15.9996C28.7996 19.4101 27.4522 22.6733 25.0522 25.0733Z" fill="#595959"/>
</svg>
