<svg width="20" height="21" viewBox="0 0 20 21" fill="none" xmlns="http://www.w3.org/2000/svg">
<path d="M20 10.5361C20 5.01613 15.52 0.536133 10 0.536133C4.48 0.536133 0 5.01613 0 10.5361C0 16.0561 4.48 20.5361 10 20.5361C15.52 20.5361 20 16.0561 20 10.5361ZM10 13.3261V11.5361H7C6.45 11.5361 6 11.0861 6 10.5361C6 9.98613 6.45 9.53613 7 9.53613H10V7.74613C10 7.29613 10.54 7.07613 10.85 7.39613L13.64 10.1861C13.84 10.3861 13.84 10.6961 13.64 10.8961L10.85 13.6861C10.54 13.9961 10 13.7761 10 13.3261Z" fill="white"/>
</svg>
