<svg width="20" height="21" viewBox="0 0 20 21" fill="none" xmlns="http://www.w3.org/2000/svg">
<path d="M0 10.5361C0 16.0561 4.48 20.5361 10 20.5361C15.52 20.5361 20 16.0561 20 10.5361C20 5.01613 15.52 0.536133 10 0.536133C4.48 0.536133 0 5.01613 0 10.5361ZM10 7.74613V9.53613H13C13.55 9.53613 14 9.98613 14 10.5361C14 11.0861 13.55 11.5361 13 11.5361H10V13.3261C10 13.7761 9.46 13.9961 9.15 13.6761L6.36 10.8861C6.16 10.6861 6.16 10.3761 6.36 10.1761L9.15 7.38613C9.46 7.07613 10 7.29613 10 7.74613Z" fill="white"/>
</svg>
