<svg width="108" height="109" viewBox="0 0 108 109" fill="none" xmlns="http://www.w3.org/2000/svg">
<g filter="url(#filter0_d_14134_1665)">
<circle cx="54" cy="50.5361" r="50" fill="#004fbd"/>
<path d="M47.6546 78.167C42.9433 78.167 38.5265 76.3174 35.2139 72.9883C28.331 66.0711 28.331 54.8631 35.2139 47.9459L56.4514 26.6028C58.8438 24.1985 62.0092 22.9038 65.3586 22.9038C68.708 22.9038 71.9102 24.2355 74.2658 26.6028C76.6583 29.0072 77.9465 32.1513 77.9465 35.5543C77.9465 38.9574 76.6214 42.1385 74.2658 44.5059L53.9485 64.9245C52.4026 66.478 50.3414 67.3287 48.133 67.3287C45.6302 67.3287 43.2745 66.1821 41.6919 64.2216C39.0786 60.9295 39.3362 56.1949 42.2808 53.1987L59.0646 36.331C59.5431 35.8501 60.2056 35.5543 60.905 35.5543C61.6043 35.5543 62.2668 35.8131 62.7453 36.331C63.7391 37.3667 63.7391 38.9943 62.7453 40.03L45.9615 56.8977C44.8573 58.0074 44.7836 59.7458 45.7406 60.9665C46.3295 61.7063 47.1761 62.1132 48.0962 62.1132C48.906 62.1132 49.6789 61.7803 50.231 61.2255L70.5484 40.8069C71.947 39.4012 72.7199 37.5148 72.7199 35.5543C72.7199 33.5939 71.947 31.7074 70.5484 30.3018C69.1497 28.8962 67.2725 28.1193 65.3218 28.1193C63.371 28.1193 61.4939 28.8962 60.0952 30.3018L38.8946 51.6449C36.5389 54.0123 35.2507 57.1195 35.2507 60.4486C35.2507 63.7777 36.5389 66.9219 38.8946 69.2522C41.2502 71.6196 44.342 72.9142 47.6546 72.9142C50.9672 72.9142 54.0957 71.6196 56.4145 69.2522L73.1985 52.3477C73.6769 51.8669 74.3395 51.5711 75.0388 51.5711C75.7381 51.5711 76.3638 51.8299 76.8791 52.3477C77.3576 52.8656 77.652 53.4944 77.652 54.1973C77.652 54.9001 77.3944 55.5289 76.8791 56.0097L60.0952 72.9142C56.7826 76.2433 52.3658 78.0929 47.6546 78.0929V78.167Z" fill="white"/>
</g>
<defs>
<filter id="filter0_d_14134_1665" x="0" y="0.536133" width="108" height="108" filterUnits="userSpaceOnUse" color-interpolation-filters="sRGB">
<feFlood flood-opacity="0" result="BackgroundImageFix"/>
<feColorMatrix in="SourceAlpha" type="matrix" values="0 0 0 0 0 0 0 0 0 0 0 0 0 0 0 0 0 0 127 0" result="hardAlpha"/>
<feOffset dy="4"/>
<feGaussianBlur stdDeviation="2"/>
<feComposite in2="hardAlpha" operator="out"/>
<feColorMatrix type="matrix" values="0 0 0 0 0 0 0 0 0 0 0 0 0 0 0 0 0 0 0.25 0"/>
<feBlend mode="normal" in2="BackgroundImageFix" result="effect1_dropShadow_14134_1665"/>
<feBlend mode="normal" in="SourceGraphic" in2="effect1_dropShadow_14134_1665" result="shape"/>
</filter>
</defs>
</svg>
