<svg width="108" height="109" viewBox="0 0 108 109" fill="none" xmlns="http://www.w3.org/2000/svg">
<g filter="url(#filter0_d_14134_1655)">
<circle cx="54" cy="50.5361" r="50" fill="#004fbd"/>
<path d="M55.2514 23.2354C54.4777 22.7933 53.5198 22.7933 52.7461 23.2354L28.2829 36.7564C27.104 37.4195 26.3672 38.6354 26.3672 39.9617C26.3672 41.988 28.0251 43.6459 30.0514 43.6459H77.9461C79.9725 43.6459 81.6303 41.988 81.6303 39.9617C81.6303 38.6354 80.8935 37.3827 79.7145 36.7564L55.2514 23.2354ZM51.0145 38.4512H35.9093L54.0356 28.4669L72.1619 38.4512H57.0566C57.3513 37.9354 57.5356 37.3459 57.5356 36.7196C57.5356 34.8038 55.9882 33.2564 54.0724 33.2564C52.1566 33.2564 50.6092 34.8038 50.6092 36.7196C50.6092 37.3459 50.7935 37.9354 51.0882 38.4512H51.0145ZM33.2935 47.1091V64.3879C31.8566 64.3879 30.7145 65.5301 30.7145 66.9669C30.7145 68.4038 31.8566 69.5459 33.2935 69.5459H75.5882C77.0251 69.5459 78.1672 68.4038 78.1672 66.9669C78.1672 65.5301 77.0251 64.3879 75.5882 64.3879H74.7408V47.1091H69.5461V64.3879H62.6198V47.1091H57.4251V64.3879H50.4987V47.1091H45.304V64.3879H38.3777V47.1091H33.1829H33.2935ZM29.8303 73.0091C28.3935 73.0091 27.2514 74.1511 27.2514 75.588C27.2514 77.0248 28.3935 78.167 29.8303 78.167H79.0514C80.4882 78.167 81.6303 77.0248 81.6303 75.588C81.6303 74.1511 80.4882 73.0091 79.0514 73.0091H29.8303Z" fill="white"/>
</g>
<defs>
<filter id="filter0_d_14134_1655" x="0" y="0.536133" width="108" height="108" filterUnits="userSpaceOnUse" color-interpolation-filters="sRGB">
<feFlood flood-opacity="0" result="BackgroundImageFix"/>
<feColorMatrix in="SourceAlpha" type="matrix" values="0 0 0 0 0 0 0 0 0 0 0 0 0 0 0 0 0 0 127 0" result="hardAlpha"/>
<feOffset dy="4"/>
<feGaussianBlur stdDeviation="2"/>
<feComposite in2="hardAlpha" operator="out"/>
<feColorMatrix type="matrix" values="0 0 0 0 0 0 0 0 0 0 0 0 0 0 0 0 0 0 0.25 0"/>
<feBlend mode="normal" in2="BackgroundImageFix" result="effect1_dropShadow_14134_1655"/>
<feBlend mode="normal" in="SourceGraphic" in2="effect1_dropShadow_14134_1655" result="shape"/>
</filter>
</defs>
</svg>
