<svg width="108" height="109" viewBox="0 0 108 109" fill="none" xmlns="http://www.w3.org/2000/svg">
<g filter="url(#filter0_d_14134_1650)">
<circle cx="54" cy="50.5361" r="50" fill="#004fbd"/>
<path d="M53.9988 28.0618C59.9672 28.0618 65.6777 30.4197 69.8777 34.6197C74.0777 38.8197 76.4356 44.5302 76.4356 50.4986C76.4356 56.467 74.0777 62.1776 69.8777 66.3776C65.6777 70.5776 59.9672 72.9355 53.9988 72.9355C48.0303 72.9355 42.3198 70.5776 38.1198 66.3776C33.9198 62.1776 31.5619 56.467 31.5619 50.4986C31.5619 44.5302 33.9198 38.8197 38.1198 34.6197C42.3198 30.4197 48.0303 28.0618 53.9988 28.0618ZM53.9988 78.167C61.3303 78.167 68.3672 75.2565 73.5251 70.0618C78.683 64.867 81.6303 57.867 81.6303 50.5354C81.6303 43.2038 78.7198 36.167 73.5251 31.0091C68.3303 25.8144 61.3303 22.9038 53.9988 22.9038C46.6672 22.9038 39.6303 25.8144 34.4725 31.0091C29.2777 36.2039 26.3672 43.2038 26.3672 50.5354C26.3672 57.867 29.2777 64.9039 34.4725 70.0618C39.6672 75.2565 46.6672 78.167 53.9988 78.167ZM53.9988 36.7196C52.5619 36.7196 51.4198 37.8617 51.4198 39.2986V51.3828C51.4198 52.8196 52.5619 53.9618 53.9988 53.9618C55.4356 53.9618 56.5777 52.8196 56.5777 51.3828V39.2986C56.5777 37.8617 55.4356 36.7196 53.9988 36.7196ZM57.4619 60.8881C57.4619 59.9671 57.0935 59.0828 56.4672 58.4565C55.804 57.7934 54.9567 57.4617 54.0356 57.4617C53.1145 57.4617 52.2303 57.8302 51.604 58.4565C50.9409 59.1197 50.6093 59.9671 50.6093 60.8881C50.6093 61.8092 50.9777 62.6933 51.604 63.3196C52.2672 63.9828 53.1145 64.3144 54.0356 64.3144C54.9567 64.3144 55.8409 63.9459 56.4672 63.3196C57.1303 62.6564 57.4619 61.8092 57.4619 60.8881Z" fill="white"/>
</g>
<defs>
<filter id="filter0_d_14134_1650" x="0" y="0.536133" width="108" height="108" filterUnits="userSpaceOnUse" color-interpolation-filters="sRGB">
<feFlood flood-opacity="0" result="BackgroundImageFix"/>
<feColorMatrix in="SourceAlpha" type="matrix" values="0 0 0 0 0 0 0 0 0 0 0 0 0 0 0 0 0 0 127 0" result="hardAlpha"/>
<feOffset dy="4"/>
<feGaussianBlur stdDeviation="2"/>
<feComposite in2="hardAlpha" operator="out"/>
<feColorMatrix type="matrix" values="0 0 0 0 0 0 0 0 0 0 0 0 0 0 0 0 0 0 0.25 0"/>
<feBlend mode="normal" in2="BackgroundImageFix" result="effect1_dropShadow_14134_1650"/>
<feBlend mode="normal" in="SourceGraphic" in2="effect1_dropShadow_14134_1650" result="shape"/>
</filter>
</defs>
</svg>
