<svg width="24" height="25" viewBox="0 0 24 25" fill="none" xmlns="http://www.w3.org/2000/svg">
<path d="M12 6.53613C13.1 6.53613 14 7.43613 14 8.53613C14 9.63613 13.1 10.5361 12 10.5361C10.9 10.5361 10 9.63613 10 8.53613C10 7.43613 10.9 6.53613 12 6.53613ZM12 16.5361C14.7 16.5361 17.8 17.8261 18 18.5361H6C6.23 17.8161 9.31 16.5361 12 16.5361ZM12 4.53613C9.79 4.53613 8 6.32613 8 8.53613C8 10.7461 9.79 12.5361 12 12.5361C14.21 12.5361 16 10.7461 16 8.53613C16 6.32613 14.21 4.53613 12 4.53613ZM12 14.5361C9.33 14.5361 4 15.8761 4 18.5361V20.5361H20V18.5361C20 15.8761 14.67 14.5361 12 14.5361Z" fill="#1B1B1B"/>
</svg>
