<svg width="24" height="25" viewBox="0 0 24 25" fill="none" xmlns="http://www.w3.org/2000/svg">
<path d="M6.54 5.53613C6.6 6.42613 6.75 7.29613 6.99 8.12613L5.79 9.32613C5.38 8.12613 5.12 6.85613 5.03 5.53613H6.54ZM16.4 17.5561C17.25 17.7961 18.12 17.9461 19 18.0061V19.4961C17.68 19.4061 16.41 19.1461 15.2 18.7461L16.4 17.5561ZM7.5 3.53613H4C3.45 3.53613 3 3.98613 3 4.53613C3 13.9261 10.61 21.5361 20 21.5361C20.55 21.5361 21 21.0861 21 20.5361V17.0461C21 16.4961 20.55 16.0461 20 16.0461C18.76 16.0461 17.55 15.8461 16.43 15.4761C16.33 15.4361 16.22 15.4261 16.12 15.4261C15.86 15.4261 15.61 15.5261 15.41 15.7161L13.21 17.9161C10.38 16.4661 8.06 14.1561 6.62 11.3261L8.82 9.12613C9.1 8.84613 9.18 8.45613 9.07 8.10613C8.7 6.98613 8.5 5.78613 8.5 4.53613C8.5 3.98613 8.05 3.53613 7.5 3.53613Z" fill="#1B1B1B"/>
</svg>
