<svg width="24" height="25" viewBox="0 0 24 25" fill="none" xmlns="http://www.w3.org/2000/svg">
<mask id="mask0_34_20068" style="mask-type:alpha" maskUnits="userSpaceOnUse" x="0" y="0" width="24" height="25">
<rect y="0.536133" width="24" height="24" fill="#D9D9D9"/>
</mask>
<g mask="url(#mask0_34_20068)">
<path d="M4.99995 4.53613H19C19.2833 4.53613 19.5208 4.63197 19.7125 4.82363C19.9041 5.0153 20 5.2528 20 5.53613C20 5.81947 19.9041 6.05697 19.7125 6.24863C19.5208 6.4403 19.2833 6.53613 19 6.53613H4.99995C4.71662 6.53613 4.47912 6.4403 4.28745 6.24863C4.09578 6.05697 3.99995 5.81947 3.99995 5.53613C3.99995 5.2528 4.09578 5.0153 4.28745 4.82363C4.47912 4.63197 4.71662 4.53613 4.99995 4.53613ZM4.99995 20.5361C4.71662 20.5361 4.47912 20.4403 4.28745 20.2486C4.09578 20.057 3.99995 19.8195 3.99995 19.5361V14.5361H3.82495C3.50828 14.5361 3.24995 14.4153 3.04995 14.1736C2.84995 13.932 2.78328 13.6528 2.84995 13.3361L3.84995 8.33613C3.89995 8.1028 4.01662 7.91113 4.19995 7.76113C4.38328 7.61113 4.59162 7.53613 4.82495 7.53613H19.175C19.4083 7.53613 19.6166 7.61113 19.8 7.76113C19.9833 7.91113 20.1 8.1028 20.15 8.33613L21.15 13.3361C21.2166 13.6528 21.15 13.932 20.95 14.1736C20.75 14.4153 20.4916 14.5361 20.175 14.5361H20V19.5361C20 19.8195 19.9041 20.057 19.7125 20.2486C19.5208 20.4403 19.2833 20.5361 19 20.5361C18.7166 20.5361 18.4791 20.4403 18.2875 20.2486C18.0958 20.057 18 19.8195 18 19.5361V14.5361H14V19.5361C14 19.8195 13.9041 20.057 13.7125 20.2486C13.5208 20.4403 13.2833 20.5361 13 20.5361H4.99995ZM5.99995 18.5361H12V14.5361H5.99995V18.5361ZM5.04995 12.5361H18.95L18.35 9.53613H5.64995L5.04995 12.5361Z" fill="#1B1B1B"/>
</g>
</svg>
