<svg width="41" height="41" viewBox="0 0 41 41" fill="none" xmlns="http://www.w3.org/2000/svg">
<path d="M20.5 3.86945C11.3 3.86945 3.83337 11.3361 3.83337 20.5361C3.83337 29.7361 11.3 37.2028 20.5 37.2028C29.7 37.2028 37.1667 29.7361 37.1667 20.5361C37.1667 11.3361 29.7 3.86945 20.5 3.86945ZM12.75 31.3694C14.9334 29.8028 17.6 28.8694 20.5 28.8694C23.4 28.8694 26.0667 29.8028 28.25 31.3694C26.0667 32.9361 23.4 33.8694 20.5 33.8694C17.6 33.8694 14.9334 32.9361 12.75 31.3694ZM30.7334 29.0694C27.9167 26.8694 24.3667 25.5361 20.5 25.5361C16.6334 25.5361 13.0834 26.8694 10.2667 29.0694C8.33337 26.7528 7.16671 23.7861 7.16671 20.5361C7.16671 13.1694 13.1334 7.20278 20.5 7.20278C27.8667 7.20278 33.8334 13.1694 33.8334 20.5361C33.8334 23.7861 32.6667 26.7528 30.7334 29.0694Z" fill="#005EA2"/>
<path d="M20.5 10.5361C17.2834 10.5361 14.6667 13.1528 14.6667 16.3694C14.6667 19.5861 17.2834 22.2028 20.5 22.2028C23.7167 22.2028 26.3334 19.5861 26.3334 16.3694C26.3334 13.1528 23.7167 10.5361 20.5 10.5361ZM20.5 18.8694C19.1167 18.8694 18 17.7528 18 16.3694C18 14.9861 19.1167 13.8694 20.5 13.8694C21.8834 13.8694 23 14.9861 23 16.3694C23 17.7528 21.8834 18.8694 20.5 18.8694Z" fill="#005EA2"/>
</svg>
