<svg width="41" height="41" viewBox="0 0 41 41" fill="none" xmlns="http://www.w3.org/2000/svg">
<path d="M20.5 12.2028V5.53613H3.83337V35.5361H37.1667V12.2028H20.5ZM10.5 32.2028H7.16671V28.8695H10.5V32.2028ZM10.5 25.5361H7.16671V22.2028H10.5V25.5361ZM10.5 18.8695H7.16671V15.5361H10.5V18.8695ZM10.5 12.2028H7.16671V8.86947H10.5V12.2028ZM17.1667 32.2028H13.8334V28.8695H17.1667V32.2028ZM17.1667 25.5361H13.8334V22.2028H17.1667V25.5361ZM17.1667 18.8695H13.8334V15.5361H17.1667V18.8695ZM17.1667 12.2028H13.8334V8.86947H17.1667V12.2028ZM33.8334 32.2028H20.5V28.8695H23.8334V25.5361H20.5V22.2028H23.8334V18.8695H20.5V15.5361H33.8334V32.2028ZM30.5 18.8695H27.1667V22.2028H30.5V18.8695ZM30.5 25.5361H27.1667V28.8695H30.5V25.5361Z" fill="#005EA2"/>
</svg>
