<svg width="41" height="41" viewBox="0 0 41 41" fill="none" xmlns="http://www.w3.org/2000/svg">
<g clip-path="url(#clip0_3798_57740)">
<path d="M7.16667 22.2028C9 22.2028 10.5 20.7028 10.5 18.8695C10.5 17.0361 9 15.5361 7.16667 15.5361C5.33333 15.5361 3.83333 17.0361 3.83333 18.8695C3.83333 20.7028 5.33333 22.2028 7.16667 22.2028ZM9.05 24.0361C8.43333 23.9361 7.81667 23.8695 7.16667 23.8695C5.51667 23.8695 3.95 24.2195 2.53333 24.8361C1.3 25.3695 0.5 26.5695 0.5 27.9195V30.5361H8V27.8528C8 26.4695 8.38333 25.1695 9.05 24.0361ZM33.8333 22.2028C35.6667 22.2028 37.1667 20.7028 37.1667 18.8695C37.1667 17.0361 35.6667 15.5361 33.8333 15.5361C32 15.5361 30.5 17.0361 30.5 18.8695C30.5 20.7028 32 22.2028 33.8333 22.2028ZM40.5 27.9195C40.5 26.5695 39.7 25.3695 38.4667 24.8361C37.05 24.2195 35.4833 23.8695 33.8333 23.8695C33.1833 23.8695 32.5667 23.9361 31.95 24.0361C32.6167 25.1695 33 26.4695 33 27.8528V30.5361H40.5V27.9195ZM27.5667 23.2861C25.6167 22.4195 23.2167 21.7861 20.5 21.7861C17.7833 21.7861 15.3833 22.4361 13.4333 23.2861C11.6333 24.0861 10.5 25.8861 10.5 27.8528V30.5361H30.5V27.8528C30.5 25.8861 29.3667 24.0861 27.5667 23.2861ZM13.95 27.2028C14.1 26.8195 14.1667 26.5528 15.4667 26.0528C17.0833 25.4195 18.7833 25.1195 20.5 25.1195C22.2167 25.1195 23.9167 25.4195 25.5333 26.0528C26.8167 26.5528 26.8833 26.8195 27.05 27.2028H13.95ZM20.5 13.8695C21.4167 13.8695 22.1667 14.6195 22.1667 15.5361C22.1667 16.4528 21.4167 17.2028 20.5 17.2028C19.5833 17.2028 18.8333 16.4528 18.8333 15.5361C18.8333 14.6195 19.5833 13.8695 20.5 13.8695ZM20.5 10.5361C17.7333 10.5361 15.5 12.7695 15.5 15.5361C15.5 18.3028 17.7333 20.5361 20.5 20.5361C23.2667 20.5361 25.5 18.3028 25.5 15.5361C25.5 12.7695 23.2667 10.5361 20.5 10.5361Z" fill="#005EA2"/>
</g>
<defs>
<clipPath id="clip0_3798_57740">
<rect width="40" height="40" fill="white" transform="translate(0.5 0.536133)"/>
</clipPath>
</defs>
</svg>
