<svg width="41" height="41" viewBox="0 0 41 41" fill="none" xmlns="http://www.w3.org/2000/svg">
<path d="M20.87 33.6278C20.57 33.9278 20.0367 33.9778 19.6867 33.6278C19.3867 33.3278 19.3367 32.7945 19.6867 32.4445L25.3367 26.7945L22.9867 24.4445L17.3367 30.0945C17.02 30.4278 16.4867 30.4111 16.1533 30.0945C15.8033 29.7445 15.8533 29.2111 16.1533 28.9111L21.8033 23.2611L19.4533 20.9111L13.8033 26.5611C13.5033 26.8611 12.97 26.9111 12.62 26.5611C12.3033 26.2445 12.3033 25.7111 12.62 25.3778L18.27 19.7278L15.9033 17.3778L10.2533 23.0278C9.95333 23.3278 9.41999 23.3778 9.06999 23.0278C8.75333 22.6945 8.75333 22.1778 9.06999 21.8445L16.37 14.5445L19.4867 17.6445C21.07 19.2278 23.8033 19.2111 25.3867 17.6445C27.02 16.0111 27.02 13.3778 25.3867 11.7445L22.2867 8.64447L22.7533 8.17781C24.0533 6.87781 26.17 6.87781 27.47 8.17781L34.5367 15.2445C35.8367 16.5445 35.8367 18.6611 34.5367 19.9611L20.87 33.6278ZM36.8867 22.3278C39.4867 19.7278 39.4867 15.5111 36.8867 12.8945L29.82 5.82781C27.22 3.22781 23.0033 3.22781 20.3867 5.82781L19.92 6.29447L19.4533 5.82781C16.8533 3.22781 12.6367 3.22781 10.02 5.82781L4.11999 11.7278C1.75333 14.0945 1.53666 17.7778 3.45333 20.3778L5.86999 17.9611C5.21999 16.7111 5.43666 15.1278 6.48666 14.0778L12.3867 8.17781C13.6867 6.87781 15.8033 6.87781 17.1033 8.17781L23.0367 14.1111C23.3367 14.4111 23.3867 14.9445 23.0367 15.2945C22.6867 15.6445 22.1533 15.5945 21.8533 15.2945L16.37 9.82781L6.70333 19.4778C5.06999 21.0945 5.06999 23.7445 6.70333 25.3778C7.35333 26.0278 8.18666 26.4278 9.06999 26.5445C9.18666 27.4111 9.56999 28.2445 10.2367 28.9111C10.9033 29.5778 11.7367 29.9611 12.6033 30.0778C12.72 30.9445 13.1033 31.7778 13.77 32.4445C14.4367 33.1111 15.27 33.4945 16.1367 33.6111C16.2533 34.5111 16.6533 35.3278 17.3033 35.9778C18.0867 36.7611 19.1367 37.1945 20.2533 37.1945C21.37 37.1945 22.42 36.7611 23.2033 35.9778L36.8867 22.3278Z" fill="#005EA2"/>
</svg>
