<svg width="41" height="41" viewBox="0 0 41 41" fill="none" xmlns="http://www.w3.org/2000/svg">
<path d="M32.1667 5.53613H8.83333C6.98333 5.53613 5.5 7.03613 5.5 8.86947V32.2028C5.5 34.0361 6.98333 35.5361 8.83333 35.5361H32.1667C34 35.5361 35.5 34.0361 35.5 32.2028V8.86947C35.5 7.03613 34.0167 5.53613 32.1667 5.53613ZM32.1667 32.2028H8.83333V12.2028H32.1667V32.2028ZM20.5 18.0361C23.5667 18.0361 26.3 19.6361 27.7333 22.2028C26.3 24.7695 23.5667 26.3695 20.5 26.3695C17.4333 26.3695 14.7 24.7695 13.2667 22.2028C14.7 19.6361 17.4333 18.0361 20.5 18.0361ZM20.5 15.5361C15.95 15.5361 12.0667 18.3028 10.5 22.2028C12.0667 26.1028 15.95 28.8695 20.5 28.8695C25.05 28.8695 28.9333 26.1028 30.5 22.2028C28.9333 18.3028 25.05 15.5361 20.5 15.5361ZM20.5 24.7028C19.1167 24.7028 18 23.5861 18 22.2028C18 20.8195 19.1167 19.7028 20.5 19.7028C21.8833 19.7028 23 20.8195 23 22.2028C23 23.5861 21.8833 24.7028 20.5 24.7028Z" fill="#005EA2"/>
</svg>
