<svg width="41" height="41" viewBox="0 0 41 41" fill="none" xmlns="http://www.w3.org/2000/svg">
<path d="M10.5007 25.5354C9.11732 25.5354 7.86732 26.1021 6.96732 27.0021C5.00065 28.9688 3.83398 37.2021 3.83398 37.2021C3.83398 37.2021 12.0673 36.0355 14.034 34.0688C14.934 33.1688 15.5007 31.9188 15.5007 30.5354C15.5007 27.7688 13.2673 25.5354 10.5007 25.5354ZM11.684 31.7188C11.2173 32.1854 8.06732 32.9855 8.06732 32.9855C8.06732 32.9855 8.85065 29.8521 9.33398 29.3688C9.61732 29.0521 10.034 28.8688 10.5007 28.8688C11.4173 28.8688 12.1673 29.6188 12.1673 30.5354C12.1673 31.0021 11.984 31.4188 11.684 31.7188ZM29.534 23.2854C40.134 12.6854 36.6007 4.43545 36.6007 4.43545C36.6007 4.43545 28.3507 0.902117 17.7507 11.5021L13.6007 10.6688C12.5173 10.4521 11.384 10.8021 10.584 11.5855L3.83398 18.3521L12.1673 21.9188L19.1173 28.8688L22.684 37.2021L29.434 30.4521C30.2173 29.6688 30.5673 28.5354 30.3507 27.4354L29.534 23.2854ZM12.8507 18.5855L9.66732 17.2188L12.9507 13.9355L15.3507 14.4188C14.4007 15.8021 13.5507 17.2521 12.8507 18.5855ZM23.8173 31.3688L22.4507 28.1854C23.784 27.4855 25.234 26.6355 26.6007 25.6854L27.084 28.0855L23.8173 31.3688ZM27.1673 20.9354C24.9673 23.1355 21.534 24.9354 20.434 25.4855L15.5507 20.6021C16.084 19.5188 17.884 16.0855 20.1007 13.8688C27.9007 6.06878 33.8173 7.21878 33.8173 7.21878C33.8173 7.21878 34.9673 13.1355 27.1673 20.9354ZM25.5007 18.8688C27.334 18.8688 28.834 17.3688 28.834 15.5355C28.834 13.7021 27.334 12.2021 25.5007 12.2021C23.6673 12.2021 22.1673 13.7021 22.1673 15.5355C22.1673 17.3688 23.6673 18.8688 25.5007 18.8688Z" fill="#005EA2"/>
</svg>
