<svg width="41" height="41" viewBox="0 0 41 41" fill="none" xmlns="http://www.w3.org/2000/svg">
<path d="M10.9167 35.5361H17.5833C17.5833 37.3695 16.0833 38.8695 14.25 38.8695C12.4167 38.8695 10.9167 37.3695 10.9167 35.5361ZM7.58333 33.8695H20.9167V30.5361H7.58333V33.8695ZM26.75 18.0362C26.75 24.4028 22.3167 27.8028 20.4667 28.8695H8.03333C6.18333 27.8028 1.75 24.4028 1.75 18.0362C1.75 11.1362 7.35 5.53615 14.25 5.53615C21.15 5.53615 26.75 11.1362 26.75 18.0362ZM23.4167 18.0362C23.4167 12.9862 19.3 8.86949 14.25 8.86949C9.2 8.86949 5.08333 12.9862 5.08333 18.0362C5.08333 22.1528 7.56667 24.5195 9 25.5362H19.5C20.9333 24.5195 23.4167 22.1528 23.4167 18.0362ZM34.8667 14.4862L32.5833 15.5362L34.8667 16.5862L35.9167 18.8695L36.9667 16.5862L39.25 15.5362L36.9667 14.4862L35.9167 12.2028L34.8667 14.4862ZM30.9167 12.2028L32.4833 8.76949L35.9167 7.20282L32.4833 5.63615L30.9167 2.20282L29.35 5.63615L25.9167 7.20282L29.35 8.76949L30.9167 12.2028Z" fill="#005EA2"/>
</svg>
